<svg xmlns="http://www.w3.org/2000/svg" xmlns:xlink="http://www.w3.org/1999/xlink" width="728" zoomAndPan="magnify" viewBox="0 0 546 242.999999" height="324" preserveAspectRatio="xMidYMid meet" version="1.2"><defs><clipPath id="b30e1ea4cd"><path d="M 3 48 L 160 48 L 160 181.976562 L 3 181.976562 Z M 3 48 "/></clipPath><clipPath id="43ce47e98a"><path d="M 123 73 L 465.285156 73 L 465.285156 112 L 123 112 Z M 123 73 "/></clipPath></defs><g id="1eeae734be"><path style=" stroke:none;fill-rule:nonzero;fill:#ffffff;fill-opacity:1;" d="M 441.140625 66.363281 C 444.347656 58.46875 449.765625 52.445312 456.25 49.765625 C 457.097656 49.433594 457.097656 48.257812 456.25 47.925781 C 449.765625 45.285156 444.347656 39.222656 441.140625 31.328125 C 440.808594 30.484375 439.628906 30.484375 439.296875 31.328125 C 436.089844 39.222656 430.671875 45.246094 424.1875 47.925781 C 423.339844 48.257812 423.339844 49.433594 424.1875 49.765625 C 430.710938 52.40625 436.128906 58.46875 439.296875 66.363281 C 439.589844 67.207031 440.769531 67.207031 441.140625 66.363281 Z M 441.140625 66.363281 "/><path style=" stroke:none;fill-rule:nonzero;fill:#f9fafd;fill-opacity:1;" d="M 414.601562 35.917969 C 414.789062 36.503906 415.414062 36.503906 415.597656 35.917969 C 417.292969 30.484375 420.167969 26.332031 423.632812 24.496094 C 424.074219 24.238281 424.074219 23.46875 423.632812 23.210938 C 420.167969 21.375 417.292969 17.222656 415.597656 11.789062 C 415.414062 11.203125 414.789062 11.203125 414.601562 11.789062 C 412.90625 17.222656 410.03125 21.375 406.566406 23.210938 C 406.125 23.46875 406.125 24.238281 406.566406 24.496094 C 410.03125 26.332031 412.90625 30.484375 414.601562 35.917969 Z M 414.601562 35.917969 "/><path style=" stroke:none;fill-rule:nonzero;fill:#ffffff;fill-opacity:1;" d="M 451.828125 21.042969 C 453.300781 16.417969 455.734375 12.855469 458.683594 11.3125 C 459.050781 11.089844 459.050781 10.429688 458.683594 10.210938 C 455.734375 8.667969 453.265625 5.105469 451.828125 0.476562 C 451.679688 0 451.128906 0 450.980469 0.476562 C 449.542969 5.105469 447.074219 8.667969 444.125 10.210938 C 443.71875 10.429688 443.71875 11.089844 444.125 11.3125 C 447.074219 12.855469 449.542969 16.417969 450.980469 21.042969 C 451.164062 21.523438 451.679688 21.523438 451.828125 21.042969 Z M 451.828125 21.042969 "/><path style=" stroke:none;fill-rule:nonzero;fill:#f9fafd;fill-opacity:1;" d="M 218.304688 56.042969 L 218.304688 56.484375 L 224.902344 56.484375 L 224.902344 48.625 C 221.179688 49.066406 218.304688 52.222656 218.304688 56.042969 Z M 218.304688 56.042969 "/><path style=" stroke:none;fill-rule:nonzero;fill:#f9fafd;fill-opacity:1;" d="M 218.304688 58.285156 L 224.902344 58.285156 L 224.902344 69.191406 L 218.304688 69.191406 Z M 218.304688 58.285156 "/><path style=" stroke:none;fill-rule:nonzero;fill:#f9fafd;fill-opacity:1;" d="M 226.707031 48.625 L 226.707031 56.484375 L 233.304688 56.484375 L 233.304688 56.042969 C 233.304688 52.222656 230.429688 49.066406 226.707031 48.625 Z M 226.707031 48.625 "/><path style=" stroke:none;fill-rule:nonzero;fill:#f9fafd;fill-opacity:1;" d="M 226.707031 58.285156 L 233.304688 58.285156 L 233.304688 69.191406 L 226.707031 69.191406 Z M 226.707031 58.285156 "/><path style=" stroke:none;fill-rule:nonzero;fill:#f9fafd;fill-opacity:1;" d="M 360.421875 49.691406 L 360.421875 50.132812 L 367.019531 50.132812 L 367.019531 42.273438 C 363.296875 42.710938 360.421875 45.871094 360.421875 49.691406 Z M 360.421875 49.691406 "/><path style=" stroke:none;fill-rule:nonzero;fill:#f9fafd;fill-opacity:1;" d="M 360.421875 51.929688 L 367.019531 51.929688 L 367.019531 62.839844 L 360.421875 62.839844 Z M 360.421875 51.929688 "/><path style=" stroke:none;fill-rule:nonzero;fill:#f9fafd;fill-opacity:1;" d="M 368.828125 42.273438 L 368.828125 50.132812 L 375.425781 50.132812 L 375.425781 49.691406 C 375.425781 45.871094 372.550781 42.710938 368.828125 42.273438 Z M 368.828125 42.273438 "/><path style=" stroke:none;fill-rule:nonzero;fill:#f9fafd;fill-opacity:1;" d="M 368.828125 51.929688 L 375.425781 51.929688 L 375.425781 62.839844 L 368.828125 62.839844 Z M 368.828125 51.929688 "/><g clip-rule="nonzero" clip-path="url(#b30e1ea4cd)"><path style=" stroke:none;fill-rule:nonzero;fill:#f9fafd;fill-opacity:1;" d="M 113.335938 82.304688 C 113.449219 82.230469 113.59375 82.15625 113.707031 82.082031 C 114.222656 81.753906 114.628906 81.347656 114.957031 80.90625 C 115.546875 80.0625 115.84375 79.035156 115.621094 78.152344 L 115.363281 77.015625 C 115.363281 77.015625 117.097656 76.132812 118.054688 75.691406 C 118.386719 75.507812 118.609375 75.398438 118.644531 75.398438 C 121.152344 74.148438 123.695312 72.863281 126.199219 71.617188 C 128.265625 70.585938 130.363281 69.414062 132.355469 68.457031 C 132.796875 68.238281 133.238281 67.90625 133.683594 67.722656 C 134.566406 67.355469 135.414062 66.988281 136.296875 66.585938 C 137.40625 66.035156 138.472656 65.484375 139.578125 64.933594 C 142.121094 63.644531 144.664062 62.398438 147.207031 61.113281 C 148.5 60.453125 149.824219 59.789062 151.113281 59.128906 C 152.257812 61.40625 154.246094 62.472656 156.089844 61.554688 C 158.414062 60.414062 159.59375 56.667969 158.78125 53.214844 C 157.96875 49.726562 155.390625 47.816406 153.105469 48.992188 C 151.261719 49.910156 150.121094 52.554688 150.195312 55.382812 L 115.402344 72.792969 L 114.40625 73.269531 C 114.074219 71.800781 112.453125 71.285156 110.832031 72.09375 L 108.03125 73.488281 L 106.40625 74.296875 L 104.75 75.105469 L 98.925781 78.042969 L 96.234375 79.402344 L 70.25 92.402344 C 68.59375 93.246094 67.5625 95.082031 67.894531 96.554688 L 52.707031 104.15625 L 51.050781 102.871094 C 50.644531 102.539062 49.980469 102.539062 49.390625 102.832031 L 21.121094 117.007812 C 19.757812 117.707031 19.277344 119.433594 20.273438 120.09375 C 20.347656 120.132812 20.457031 120.203125 20.570312 120.277344 L 20.015625 120.570312 C 18.875 121.121094 18.136719 122.480469 18.394531 123.546875 C 18.617188 124.574219 19.796875 124.941406 20.9375 124.390625 L 24.253906 122.738281 C 26.613281 124.390625 29.046875 126.226562 30.371094 127.695312 C 33.027344 130.671875 26.464844 149.253906 24.476562 154.765625 C 24.144531 155.644531 24.476562 156.417969 25.285156 156.601562 L 29.121094 157.445312 C 26.910156 162.878906 23.480469 169.527344 18.835938 173.824219 C 15.703125 176.726562 11.429688 179.957031 8.996094 178.820312 C 4.132812 176.542969 6.785156 171.695312 11.058594 165.121094 L 12.054688 163.578125 C 13.898438 160.675781 19.5 151.863281 16.921875 147.015625 C 15.078125 143.597656 8.773438 142.09375 4.132812 144.003906 L 4.425781 146.351562 C 7.890625 144.957031 13.199219 146.167969 14.5625 148.703125 C 16.550781 152.414062 11.613281 160.125 10.027344 162.660156 L 9.070312 164.164062 C 5.53125 169.636719 0.1875 177.863281 7.375 181.242188 C 8.960938 181.976562 10.988281 181.792969 13.382812 180.582031 C 15.410156 179.554688 17.695312 177.863281 20.238281 175.515625 C 25.359375 170.777344 29.007812 163.726562 31.40625 157.996094 L 32.878906 158.324219 L 38.886719 155.316406 L 43.234375 153.148438 L 43.421875 150.945312 L 45.449219 128.210938 C 45.519531 127.402344 46.183594 126.558594 46.996094 126.226562 C 49.023438 125.417969 52.929688 123.765625 56.835938 121.121094 C 61.628906 117.925781 60.78125 112.089844 60.449219 110.507812 C 60.375 110.214844 60.265625 109.996094 60.042969 109.8125 L 56.171875 106.800781 L 68.925781 100.410156 L 69.183594 101.546875 C 69.550781 103.054688 71.136719 103.566406 72.796875 102.722656 L 101.136719 88.546875 L 105.890625 86.160156 L 112.195312 83 Z M 32.769531 154.324219 L 28.566406 153.367188 C 28.566406 153.367188 35.605469 146.023438 40.398438 134.195312 C 40.730469 133.390625 41.835938 133.316406 41.761719 134.125 L 40.359375 150.539062 Z M 57.683594 111.90625 C 57.683594 111.90625 60.375 118.660156 46.367188 123.140625 L 46.996094 117.265625 Z M 100.992188 80.90625 L 97.859375 82.488281 L 71.652344 95.597656 C 71.097656 95.855469 70.582031 95.671875 70.472656 95.195312 C 70.363281 94.714844 70.695312 94.09375 71.246094 93.796875 L 97.046875 80.90625 L 99.773438 79.546875 L 106.078125 76.390625 L 107.734375 75.582031 L 109.355469 74.773438 L 110.683594 74.113281 C 111.238281 73.820312 111.753906 74.039062 111.863281 74.515625 C 111.972656 74.996094 111.640625 75.617188 111.089844 75.875 L 110.574219 76.132812 L 108.953125 76.941406 L 107.292969 77.75 Z M 100.992188 80.90625 "/></g><path style=" stroke:none;fill-rule:nonzero;fill:#f9fafd;fill-opacity:1;" d="M 178.390625 78.925781 L 225.824219 20.640625 L 265.703125 68.640625 L 270.898438 67.941406 L 271.121094 67.757812 L 225.785156 13.183594 L 171.792969 79.546875 C 173.671875 79.363281 175.625 79.179688 177.613281 78.996094 C 177.875 78.996094 178.132812 78.960938 178.390625 78.925781 Z M 178.390625 78.925781 "/><path style=" stroke:none;fill-rule:nonzero;fill:#f9fafd;fill-opacity:1;" d="M 323.492188 63.390625 L 367.90625 8.8125 L 424.40625 79.476562 L 433.585938 83.367188 L 367.941406 1.285156 L 317.226562 63.609375 C 319.328125 63.5 321.429688 63.425781 323.492188 63.390625 Z M 323.492188 63.390625 "/><path style=" stroke:none;fill-rule:nonzero;fill:#f9fafd;fill-opacity:1;" d="M 275.839844 67.28125 L 279.820312 66.769531 C 285.199219 66.179688 290.582031 65.554688 296 64.933594 C 301.417969 64.492188 306.90625 64.085938 312.363281 63.792969 L 362.597656 2.277344 L 303.222656 34.742188 L 233.304688 14.835938 L 275.578125 67.28125 Z M 275.839844 67.28125 "/><g clip-rule="nonzero" clip-path="url(#43ce47e98a)"><path style=" stroke:none;fill-rule:nonzero;fill:#f9fafd;fill-opacity:1;" d="M 461.925781 109.589844 C 459.753906 108.230469 456.65625 106.101562 452.527344 103.679688 C 450.464844 102.464844 448.179688 101.070312 445.636719 99.710938 C 443.09375 98.277344 440.292969 96.882812 437.269531 95.449219 C 431.261719 92.441406 424.222656 89.539062 416.410156 86.710938 C 412.503906 85.351562 408.335938 84.140625 404.0625 82.816406 C 401.886719 82.265625 399.675781 81.679688 397.429688 81.128906 L 397.390625 81.128906 C 395.144531 80.539062 392.859375 79.988281 390.535156 79.511719 C 381.210938 77.566406 371.257812 75.914062 360.941406 74.996094 C 355.742188 74.515625 350.472656 74.003906 345.164062 73.894531 C 339.820312 73.710938 334.402344 73.378906 328.984375 73.597656 C 318.148438 73.5625 306.980469 74.332031 295.960938 75.214844 C 290.542969 75.839844 285.164062 76.425781 279.78125 77.050781 L 275.617188 77.566406 L 271.636719 78.117188 C 268.984375 78.484375 266.328125 78.8125 263.710938 79.179688 C 253.132812 80.539062 242.742188 81.9375 232.679688 83.148438 C 220.921875 84.582031 209.605469 85.902344 198.992188 87.078125 C 191.4375 87.921875 184.285156 88.65625 177.578125 89.28125 C 173.523438 89.648438 169.652344 90.015625 165.96875 90.347656 C 162.28125 90.714844 158.78125 91.007812 155.5 91.226562 C 148.902344 91.742188 143.152344 92.109375 138.398438 92.367188 C 133.644531 92.550781 129.921875 92.808594 127.378906 92.808594 C 124.835938 92.878906 123.4375 92.917969 123.4375 92.917969 C 123.4375 92.917969 124.800781 93.175781 127.304688 93.613281 C 129.847656 94.054688 133.570312 94.644531 138.289062 95.15625 C 143.042969 95.671875 148.867188 96.296875 155.539062 96.625 C 162.171875 97.066406 169.726562 97.359375 177.910156 97.472656 C 186.128906 97.582031 195.011719 97.472656 204.371094 97.175781 C 213.769531 96.882812 223.6875 96.40625 233.894531 95.636719 C 238.980469 95.339844 244.179688 94.863281 249.410156 94.386719 C 254.683594 93.910156 259.988281 93.429688 265.332031 92.84375 C 270.605469 92.257812 275.949219 91.667969 281.292969 91.082031 C 286.671875 90.53125 292.089844 89.941406 297.472656 89.390625 C 308.125 88.472656 318.628906 87.703125 329.207031 87.445312 C 334.441406 87.152344 339.671875 87.261719 344.796875 87.222656 C 349.957031 87.113281 355.003906 87.445312 359.980469 87.59375 C 369.96875 87.960938 379.589844 88.878906 388.65625 90.089844 C 393.1875 90.601562 397.574219 91.523438 401.851562 92.109375 C 406.050781 92.953125 410.179688 93.796875 414.085938 94.644531 C 421.863281 96.515625 429.015625 98.425781 435.207031 100.484375 C 436.753906 100.996094 438.265625 101.511719 439.738281 101.988281 C 441.175781 102.503906 442.578125 103.015625 443.902344 103.496094 C 446.59375 104.414062 449.027344 105.367188 451.238281 106.25 C 459.53125 109.589844 464.507812 111.574219 465.097656 111.792969 C 464.914062 111.574219 463.804688 110.839844 461.925781 109.589844 Z M 461.925781 109.589844 "/></g><path style=" stroke:none;fill-rule:nonzero;fill:#ffffff;fill-opacity:1;" d="M 162.835938 48.625 L 224.054688 10.613281 L 178.648438 63.351562 L 162.835938 58.246094 C 162.835938 58.246094 164.972656 52.554688 162.835938 48.625 Z M 162.835938 48.625 "/><g style="fill:#ffffff;fill-opacity:1;"><g transform="translate(85.591996, 166.240548)"><path style="stroke:none" d="M 30.71875 1.171875 C 25.289062 1.171875 20.039062 0.4375 14.96875 -1.03125 C 9.894531 -2.5 5.820312 -4.410156 2.75 -6.765625 L 8.140625 -18.75 C 11.085938 -16.582031 14.585938 -14.84375 18.640625 -13.53125 C 22.703125 -12.226562 26.757812 -11.578125 30.8125 -11.578125 C 35.332031 -11.578125 38.671875 -12.25 40.828125 -13.59375 C 42.984375 -14.9375 44.0625 -16.71875 44.0625 -18.9375 C 44.0625 -20.570312 43.421875 -21.929688 42.140625 -23.015625 C 40.867188 -24.097656 39.234375 -24.960938 37.234375 -25.609375 C 35.242188 -26.265625 32.546875 -26.988281 29.140625 -27.78125 C 23.910156 -29.019531 19.625 -30.257812 16.28125 -31.5 C 12.945312 -32.75 10.085938 -34.742188 7.703125 -37.484375 C 5.316406 -40.234375 4.125 -43.898438 4.125 -48.484375 C 4.125 -52.472656 5.203125 -56.085938 7.359375 -59.328125 C 9.515625 -62.566406 12.769531 -65.132812 17.125 -67.03125 C 21.476562 -68.925781 26.796875 -69.875 33.078125 -69.875 C 37.460938 -69.875 41.742188 -69.347656 45.921875 -68.296875 C 50.109375 -67.253906 53.773438 -65.753906 56.921875 -63.796875 L 52.015625 -51.71875 C 45.671875 -55.320312 39.320312 -57.125 32.96875 -57.125 C 28.519531 -57.125 25.234375 -56.398438 23.109375 -54.953125 C 20.984375 -53.515625 19.921875 -51.617188 19.921875 -49.265625 C 19.921875 -46.910156 21.144531 -45.160156 23.59375 -44.015625 C 26.050781 -42.867188 29.800781 -41.738281 34.84375 -40.625 C 40.070312 -39.382812 44.351562 -38.140625 47.6875 -36.890625 C 51.03125 -35.648438 53.894531 -33.6875 56.28125 -31 C 58.664062 -28.320312 59.859375 -24.695312 59.859375 -20.125 C 59.859375 -16.195312 58.765625 -12.613281 56.578125 -9.375 C 54.390625 -6.132812 51.101562 -3.566406 46.71875 -1.671875 C 42.332031 0.222656 37 1.171875 30.71875 1.171875 Z M 30.71875 1.171875 "/></g></g><g style="fill:#ffffff;fill-opacity:1;"><g transform="translate(148.205402, 166.240548)"><path style="stroke:none" d="M 41.125 -2.546875 C 39.613281 -1.441406 37.757812 -0.609375 35.5625 -0.046875 C 33.375 0.503906 31.070312 0.78125 28.65625 0.78125 C 22.375 0.78125 17.515625 -0.816406 14.078125 -4.015625 C 10.648438 -7.222656 8.9375 -11.9375 8.9375 -18.15625 L 8.9375 -39.84375 L 0.78125 -39.84375 L 0.78125 -51.625 L 8.9375 -51.625 L 8.9375 -64.484375 L 24.234375 -64.484375 L 24.234375 -51.625 L 37.390625 -51.625 L 37.390625 -39.84375 L 24.234375 -39.84375 L 24.234375 -18.359375 C 24.234375 -16.128906 24.804688 -14.410156 25.953125 -13.203125 C 27.097656 -11.992188 28.71875 -11.390625 30.8125 -11.390625 C 33.238281 -11.390625 35.300781 -12.039062 37 -13.34375 Z M 41.125 -2.546875 "/></g></g><g style="fill:#ffffff;fill-opacity:1;"><g transform="translate(189.227953, 166.240548)"><path style="stroke:none" d="M 58.78125 -26.203125 C 58.78125 -26.003906 58.679688 -24.628906 58.484375 -22.078125 L 18.546875 -22.078125 C 19.265625 -18.804688 20.960938 -16.222656 23.640625 -14.328125 C 26.328125 -12.429688 29.664062 -11.484375 33.65625 -11.484375 C 36.40625 -11.484375 38.84375 -11.890625 40.96875 -12.703125 C 43.09375 -13.523438 45.070312 -14.816406 46.90625 -16.578125 L 55.0625 -7.75 C 50.082031 -2.0625 42.816406 0.78125 33.265625 0.78125 C 27.316406 0.78125 22.050781 -0.378906 17.46875 -2.703125 C 12.882812 -5.023438 9.347656 -8.242188 6.859375 -12.359375 C 4.378906 -16.484375 3.140625 -21.164062 3.140625 -26.40625 C 3.140625 -31.570312 4.363281 -36.226562 6.8125 -40.375 C 9.269531 -44.53125 12.640625 -47.769531 16.921875 -50.09375 C 21.210938 -52.414062 26.007812 -53.578125 31.3125 -53.578125 C 36.476562 -53.578125 41.15625 -52.460938 45.34375 -50.234375 C 49.53125 -48.015625 52.816406 -44.828125 55.203125 -40.671875 C 57.585938 -36.523438 58.78125 -31.703125 58.78125 -26.203125 Z M 31.40625 -42 C 27.9375 -42 25.023438 -41.015625 22.671875 -39.046875 C 20.316406 -37.085938 18.878906 -34.410156 18.359375 -31.015625 L 44.359375 -31.015625 C 43.835938 -34.347656 42.398438 -37.007812 40.046875 -39 C 37.691406 -41 34.8125 -42 31.40625 -42 Z M 31.40625 -42 "/></g></g><g style="fill:#ffffff;fill-opacity:1;"><g transform="translate(251.154382, 166.240548)"><path style="stroke:none" d="M 21.6875 -45.828125 C 23.519531 -48.378906 25.988281 -50.304688 29.09375 -51.609375 C 32.207031 -52.921875 35.789062 -53.578125 39.84375 -53.578125 L 39.84375 -39.453125 C 38.144531 -39.585938 37 -39.65625 36.40625 -39.65625 C 32.019531 -39.65625 28.582031 -38.425781 26.09375 -35.96875 C 23.613281 -33.507812 22.375 -29.828125 22.375 -24.921875 L 22.375 0 L 7.0625 0 L 7.0625 -52.796875 L 21.6875 -52.796875 Z M 21.6875 -45.828125 "/></g></g><g style="fill:#ffffff;fill-opacity:1;"><g transform="translate(293.060176, 166.240548)"><path style="stroke:none" d="M 7.0625 -72.828125 L 22.375 -72.828125 L 22.375 0 L 7.0625 0 Z M 7.0625 -72.828125 "/></g></g><g style="fill:#ffffff;fill-opacity:1;"><g transform="translate(322.600348, 166.240548)"><path style="stroke:none" d="M 7.0625 -52.796875 L 22.375 -52.796875 L 22.375 0 L 7.0625 0 Z M 14.71875 -60.15625 C 11.90625 -60.15625 9.613281 -60.972656 7.84375 -62.609375 C 6.070312 -64.242188 5.1875 -66.273438 5.1875 -68.703125 C 5.1875 -71.117188 6.070312 -73.144531 7.84375 -74.78125 C 9.613281 -76.414062 11.90625 -77.234375 14.71875 -77.234375 C 17.53125 -77.234375 19.816406 -76.445312 21.578125 -74.875 C 23.347656 -73.3125 24.234375 -71.351562 24.234375 -69 C 24.234375 -66.445312 23.347656 -64.332031 21.578125 -62.65625 C 19.816406 -60.988281 17.53125 -60.15625 14.71875 -60.15625 Z M 14.71875 -60.15625 "/></g></g><g style="fill:#ffffff;fill-opacity:1;"><g transform="translate(352.14052, 166.240548)"><path style="stroke:none" d="M 39.15625 -53.578125 C 45.695312 -53.578125 50.976562 -51.613281 55 -47.6875 C 59.03125 -43.769531 61.046875 -37.953125 61.046875 -30.234375 L 61.046875 0 L 45.734375 0 L 45.734375 -27.875 C 45.734375 -32.0625 44.816406 -35.179688 42.984375 -37.234375 C 41.148438 -39.296875 38.5 -40.328125 35.03125 -40.328125 C 31.175781 -40.328125 28.101562 -39.132812 25.8125 -36.75 C 23.519531 -34.363281 22.375 -30.816406 22.375 -26.109375 L 22.375 0 L 7.0625 0 L 7.0625 -52.796875 L 21.6875 -52.796875 L 21.6875 -46.609375 C 23.71875 -48.835938 26.238281 -50.554688 29.25 -51.765625 C 32.257812 -52.972656 35.5625 -53.578125 39.15625 -53.578125 Z M 39.15625 -53.578125 "/></g></g><g style="fill:#ffffff;fill-opacity:1;"><g transform="translate(420.544183, 166.240548)"><path style="stroke:none" d="M 61.53125 -52.796875 L 61.53125 -8.828125 C 61.53125 0.847656 59.007812 8.039062 53.96875 12.75 C 48.9375 17.46875 41.578125 19.828125 31.890625 19.828125 C 26.785156 19.828125 21.941406 19.203125 17.359375 17.953125 C 12.785156 16.710938 8.992188 14.914062 5.984375 12.5625 L 12.078125 1.5625 C 14.296875 3.394531 17.101562 4.851562 20.5 5.9375 C 23.90625 7.019531 27.3125 7.5625 30.71875 7.5625 C 36.019531 7.5625 39.925781 6.363281 42.4375 3.96875 C 44.957031 1.582031 46.21875 -2.03125 46.21875 -6.875 L 46.21875 -9.125 C 42.226562 -4.738281 36.671875 -2.546875 29.546875 -2.546875 C 24.703125 -2.546875 20.265625 -3.609375 16.234375 -5.734375 C 12.210938 -7.867188 9.023438 -10.863281 6.671875 -14.71875 C 4.316406 -18.582031 3.140625 -23.03125 3.140625 -28.0625 C 3.140625 -33.101562 4.316406 -37.550781 6.671875 -41.40625 C 9.023438 -45.269531 12.210938 -48.265625 16.234375 -50.390625 C 20.265625 -52.515625 24.703125 -53.578125 29.546875 -53.578125 C 37.191406 -53.578125 43.015625 -51.0625 47.015625 -46.03125 L 47.015625 -52.796875 Z M 32.578125 -15.109375 C 36.640625 -15.109375 39.960938 -16.300781 42.546875 -18.6875 C 45.128906 -21.082031 46.421875 -24.207031 46.421875 -28.0625 C 46.421875 -31.925781 45.128906 -35.050781 42.546875 -37.4375 C 39.960938 -39.820312 36.640625 -41.015625 32.578125 -41.015625 C 28.523438 -41.015625 25.1875 -39.820312 22.5625 -37.4375 C 19.945312 -35.050781 18.640625 -31.925781 18.640625 -28.0625 C 18.640625 -24.207031 19.945312 -21.082031 22.5625 -18.6875 C 25.1875 -16.300781 28.523438 -15.109375 32.578125 -15.109375 Z M 32.578125 -15.109375 "/></g></g><g style="fill:#ffffff;fill-opacity:1;"><g transform="translate(489.269058, 166.240548)"><path style="stroke:none" d=""/></g></g><g style="fill:#ffffff;fill-opacity:1;"><g transform="translate(151.023818, 219.094306)"><path style="stroke:none" d="M 13.796875 0.53125 C 11.359375 0.53125 9 0.203125 6.71875 -0.453125 C 4.445312 -1.117188 2.617188 -1.984375 1.234375 -3.046875 L 3.65625 -8.421875 C 4.976562 -7.453125 6.550781 -6.671875 8.375 -6.078125 C 10.195312 -5.492188 12.019531 -5.203125 13.84375 -5.203125 C 15.875 -5.203125 17.375 -5.503906 18.34375 -6.109375 C 19.3125 -6.710938 19.796875 -7.515625 19.796875 -8.515625 C 19.796875 -9.242188 19.507812 -9.847656 18.9375 -10.328125 C 18.363281 -10.816406 17.628906 -11.207031 16.734375 -11.5 C 15.835938 -11.800781 14.625 -12.128906 13.09375 -12.484375 C 10.738281 -13.035156 8.8125 -13.585938 7.3125 -14.140625 C 5.820312 -14.703125 4.539062 -15.601562 3.46875 -16.84375 C 2.394531 -18.082031 1.859375 -19.726562 1.859375 -21.78125 C 1.859375 -23.570312 2.34375 -25.195312 3.3125 -26.65625 C 4.28125 -28.113281 5.738281 -29.265625 7.6875 -30.109375 C 9.644531 -30.960938 12.035156 -31.390625 14.859375 -31.390625 C 16.828125 -31.390625 18.75 -31.15625 20.625 -30.6875 C 22.507812 -30.21875 24.160156 -29.539062 25.578125 -28.65625 L 23.375 -23.234375 C 20.519531 -24.847656 17.664062 -25.65625 14.8125 -25.65625 C 12.8125 -25.65625 11.332031 -25.332031 10.375 -24.6875 C 9.425781 -24.039062 8.953125 -23.191406 8.953125 -22.140625 C 8.953125 -21.078125 9.503906 -20.285156 10.609375 -19.765625 C 11.710938 -19.253906 13.394531 -18.75 15.65625 -18.25 C 18.007812 -17.695312 19.929688 -17.140625 21.421875 -16.578125 C 22.921875 -16.015625 24.207031 -15.128906 25.28125 -13.921875 C 26.351562 -12.722656 26.890625 -11.097656 26.890625 -9.046875 C 26.890625 -7.273438 26.394531 -5.660156 25.40625 -4.203125 C 24.425781 -2.753906 22.953125 -1.601562 20.984375 -0.75 C 19.015625 0.101562 16.617188 0.53125 13.796875 0.53125 Z M 13.796875 0.53125 "/></g></g><g style="fill:#ffffff;fill-opacity:1;"><g transform="translate(184.698037, 219.094306)"><path style="stroke:none" d="M 17.375 0.53125 C 12.96875 0.53125 9.535156 -0.6875 7.078125 -3.125 C 4.617188 -5.570312 3.390625 -9.054688 3.390625 -13.578125 L 3.390625 -30.859375 L 10.53125 -30.859375 L 10.53125 -13.84375 C 10.53125 -8.320312 12.828125 -5.5625 17.421875 -5.5625 C 19.648438 -5.5625 21.351562 -6.226562 22.53125 -7.5625 C 23.707031 -8.894531 24.296875 -10.988281 24.296875 -13.84375 L 24.296875 -30.859375 L 31.34375 -30.859375 L 31.34375 -13.578125 C 31.34375 -9.054688 30.113281 -5.570312 27.65625 -3.125 C 25.207031 -0.6875 21.78125 0.53125 17.375 0.53125 Z M 17.375 0.53125 "/></g></g><g style="fill:#ffffff;fill-opacity:1;"><g transform="translate(224.983153, 219.094306)"><path style="stroke:none" d="M 23.328125 0 L 17.375 -8.59375 L 10.796875 -8.59375 L 10.796875 0 L 3.65625 0 L 3.65625 -30.859375 L 17.015625 -30.859375 C 19.753906 -30.859375 22.128906 -30.398438 24.140625 -29.484375 C 26.148438 -28.578125 27.695312 -27.285156 28.78125 -25.609375 C 29.875 -23.941406 30.421875 -21.960938 30.421875 -19.671875 C 30.421875 -17.367188 29.867188 -15.390625 28.765625 -13.734375 C 27.671875 -12.078125 26.109375 -10.804688 24.078125 -9.921875 L 31 0 Z M 23.1875 -19.671875 C 23.1875 -21.398438 22.628906 -22.726562 21.515625 -23.65625 C 20.398438 -24.582031 18.769531 -25.046875 16.625 -25.046875 L 10.796875 -25.046875 L 10.796875 -14.28125 L 16.625 -14.28125 C 18.769531 -14.28125 20.398438 -14.75 21.515625 -15.6875 C 22.628906 -16.632812 23.1875 -17.960938 23.1875 -19.671875 Z M 23.1875 -19.671875 "/></g></g><g style="fill:#ffffff;fill-opacity:1;"><g transform="translate(262.932431, 219.094306)"><path style="stroke:none" d="M 10.796875 -25.140625 L 10.796875 -16.96875 L 25.09375 -16.96875 L 25.09375 -11.25 L 10.796875 -11.25 L 10.796875 0 L 3.65625 0 L 3.65625 -30.859375 L 26.984375 -30.859375 L 26.984375 -25.140625 Z M 10.796875 -25.140625 "/></g></g><g style="fill:#ffffff;fill-opacity:1;"><g transform="translate(295.372177, 219.094306)"><path style="stroke:none" d="M 23.984375 -6.609375 L 9.65625 -6.609375 L 6.921875 0 L -0.390625 0 L 13.359375 -30.859375 L 20.421875 -30.859375 L 34.21875 0 L 26.71875 0 Z M 21.734375 -12.03125 L 16.84375 -23.859375 L 11.953125 -12.03125 Z M 21.734375 -12.03125 "/></g></g><g style="fill:#ffffff;fill-opacity:1;"><g transform="translate(334.246809, 219.094306)"><path style="stroke:none" d="M 18.4375 0.53125 C 15.289062 0.53125 12.441406 -0.148438 9.890625 -1.515625 C 7.347656 -2.890625 5.347656 -4.785156 3.890625 -7.203125 C 2.441406 -9.628906 1.71875 -12.375 1.71875 -15.4375 C 1.71875 -18.488281 2.441406 -21.226562 3.890625 -23.65625 C 5.347656 -26.082031 7.347656 -27.976562 9.890625 -29.34375 C 12.441406 -30.707031 15.300781 -31.390625 18.46875 -31.390625 C 21.144531 -31.390625 23.5625 -30.921875 25.71875 -29.984375 C 27.882812 -29.046875 29.703125 -27.691406 31.171875 -25.921875 L 26.59375 -21.6875 C 24.5 -24.101562 21.910156 -25.3125 18.828125 -25.3125 C 16.921875 -25.3125 15.21875 -24.890625 13.71875 -24.046875 C 12.21875 -23.210938 11.046875 -22.046875 10.203125 -20.546875 C 9.367188 -19.046875 8.953125 -17.34375 8.953125 -15.4375 C 8.953125 -13.519531 9.367188 -11.8125 10.203125 -10.3125 C 11.046875 -8.8125 12.21875 -7.644531 13.71875 -6.8125 C 15.21875 -5.976562 16.921875 -5.5625 18.828125 -5.5625 C 21.910156 -5.5625 24.5 -6.78125 26.59375 -9.21875 L 31.171875 -4.984375 C 29.703125 -3.191406 27.878906 -1.820312 25.703125 -0.875 C 23.523438 0.0625 21.101562 0.53125 18.4375 0.53125 Z M 18.4375 0.53125 "/></g></g><g style="fill:#ffffff;fill-opacity:1;"><g transform="translate(372.10794, 219.094306)"><path style="stroke:none" d="M 27.5625 -5.734375 L 27.5625 0 L 3.65625 0 L 3.65625 -30.859375 L 26.984375 -30.859375 L 26.984375 -25.140625 L 10.765625 -25.140625 L 10.765625 -18.4375 L 25.09375 -18.4375 L 25.09375 -12.875 L 10.765625 -12.875 L 10.765625 -5.734375 Z M 27.5625 -5.734375 "/></g></g><g style="fill:#ffffff;fill-opacity:1;"><g transform="translate(407.236567, 219.094306)"><path style="stroke:none" d="M 13.796875 0.53125 C 11.359375 0.53125 9 0.203125 6.71875 -0.453125 C 4.445312 -1.117188 2.617188 -1.984375 1.234375 -3.046875 L 3.65625 -8.421875 C 4.976562 -7.453125 6.550781 -6.671875 8.375 -6.078125 C 10.195312 -5.492188 12.019531 -5.203125 13.84375 -5.203125 C 15.875 -5.203125 17.375 -5.503906 18.34375 -6.109375 C 19.3125 -6.710938 19.796875 -7.515625 19.796875 -8.515625 C 19.796875 -9.242188 19.507812 -9.847656 18.9375 -10.328125 C 18.363281 -10.816406 17.628906 -11.207031 16.734375 -11.5 C 15.835938 -11.800781 14.625 -12.128906 13.09375 -12.484375 C 10.738281 -13.035156 8.8125 -13.585938 7.3125 -14.140625 C 5.820312 -14.703125 4.539062 -15.601562 3.46875 -16.84375 C 2.394531 -18.082031 1.859375 -19.726562 1.859375 -21.78125 C 1.859375 -23.570312 2.34375 -25.195312 3.3125 -26.65625 C 4.28125 -28.113281 5.738281 -29.265625 7.6875 -30.109375 C 9.644531 -30.960938 12.035156 -31.390625 14.859375 -31.390625 C 16.828125 -31.390625 18.75 -31.15625 20.625 -30.6875 C 22.507812 -30.21875 24.160156 -29.539062 25.578125 -28.65625 L 23.375 -23.234375 C 20.519531 -24.847656 17.664062 -25.65625 14.8125 -25.65625 C 12.8125 -25.65625 11.332031 -25.332031 10.375 -24.6875 C 9.425781 -24.039062 8.953125 -23.191406 8.953125 -22.140625 C 8.953125 -21.078125 9.503906 -20.285156 10.609375 -19.765625 C 11.710938 -19.253906 13.394531 -18.75 15.65625 -18.25 C 18.007812 -17.695312 19.929688 -17.140625 21.421875 -16.578125 C 22.921875 -16.015625 24.207031 -15.128906 25.28125 -13.921875 C 26.351562 -12.722656 26.890625 -11.097656 26.890625 -9.046875 C 26.890625 -7.273438 26.394531 -5.660156 25.40625 -4.203125 C 24.425781 -2.753906 22.953125 -1.601562 20.984375 -0.75 C 19.015625 0.101562 16.617188 0.53125 13.796875 0.53125 Z M 13.796875 0.53125 "/></g></g></g></svg>